<?xml version="1.0" standalone="no"?>
<!DOCTYPE svg PUBLIC "-//W3C//DTD SVG 20010904//EN"
 "http://www.w3.org/TR/2001/REC-SVG-20010904/DTD/svg10.dtd">
<svg version="1.0" xmlns="http://www.w3.org/2000/svg"
 width="700.000000pt" height="700.000000pt" viewBox="0 0 700.000000 700.000000"
 preserveAspectRatio="xMidYMid meet">
<metadata>
Created by potrace 1.14, written by Peter Selinger 2001-2017
</metadata>
<g transform="translate(0.000000,700.000000) scale(0.100000,-0.100000)"
fill="#000000" stroke="none">
<path d="M1272 6289 c-29 -5 -86 -22 -126 -37 -228 -89 -399 -301 -436 -538
-7 -47 -10 -760 -8 -2259 l3 -2190 28 -80 c83 -233 257 -398 488 -462 60 -17
193 -18 2279 -18 2086 0 2219 1 2279 18 242 67 431 256 498 498 17 60 18 193
18 2279 0 2086 -1 2219 -18 2279 -49 180 -172 338 -332 431 -27 16 -86 41
-130 57 l-80 28 -2205 1 c-1248 1 -2228 -2 -2258 -7z m4418 -366 c105 -43 201
-142 237 -245 17 -51 18 -143 18 -2178 0 -2035 -1 -2127 -18 -2178 -37 -106
-143 -212 -249 -249 -51 -17 -143 -18 -2178 -18 -2035 0 -2127 1 -2178 18
-103 36 -202 132 -245 237 l-22 55 -3 2109 c-2 1878 -1 2116 13 2170 37 143
144 252 285 290 48 13 332 15 2170 13 l2115 -2 55 -22z"/>
<path d="M4638 4560 c-9 -6 -33 -40 -54 -78 -64 -115 -215 -351 -318 -496
-291 -410 -595 -718 -847 -859 -158 -88 -330 -118 -442 -79 -168 60 -374 264
-578 572 -111 169 -103 160 -145 160 -95 0 -254 -147 -256 -239 -1 -20 26 -73
86 -173 274 -448 560 -762 791 -868 89 -41 157 -54 245 -47 355 28 779 361
1247 981 206 274 553 824 553 877 -1 68 -97 192 -182 235 -51 26 -74 29 -100
14z"/>
</g>
</svg>
