<?xml version="1.0" encoding="utf-8"?>
<svg viewBox="0 0 25 25" width="25" height="25" xmlns="http://www.w3.org/2000/svg">
  <g>
    <path
      d="m 24.241177,12.764885 c 0,-0.79 -0.07,-1.54 -0.19,-2.27 h -11.3 v 4.51 h 6.47 c -0.29,1.48 -1.14,2.73 -2.4,3.58 v 3 h 3.86 c 2.26,-2.09 3.56,-5.17 3.56,-8.82 z"
      style="fill:#4285f4" />
    <path
      d="m 12.751177,24.494885 c 3.24,0 5.95,-1.08 7.93,-2.91 l -3.86,-3 c -1.08,0.72 -2.45,1.16 -4.07,1.16 -3.1300004,0 -5.7800004,-2.11 -6.7300004,-4.96 h -3.98 v 3.09 c 1.97,3.92 6.02,6.62 10.7100004,6.62 z"
      style="fill:#34a853" />
    <path
      d="m 6.0211766,14.784885 c -0.25,-0.72 -0.38,-1.49 -0.38,-2.29 0,-0.8 0.14,-1.57 0.38,-2.29 V 7.1148848 H 2.0411767 C 1.2211766,8.7348847 0.75117663,10.554885 0.75117663,12.494885 c 0,1.94 0.46999997,3.76 1.29000007,5.38 z"
      style="fill:#fbbc05" />
    <path
      d="m 12.751177,5.2448848 c 1.77,0 3.35,0.6099999 4.6,1.8 l 3.42,-3.4200001 c -2.07,-1.94 -4.78,-3.1299999 -8.02,-3.1299999 -4.6900003,0 -8.7400003,2.7 -10.7100003,6.62 l 3.98,3.0900002 c 0.95,-2.8500003 3.6,-4.9600002 6.7300003,-4.9600002 z"
      style="fill:#ea4335" />
  </g>
</svg>